<?xml version="1.0" encoding="UTF-8" standalone="no"?>
<!-- Generator: Adobe Illustrator 19.0.0, SVG Export Plug-In . SVG Version: 6.00 Build 0)  -->

<svg
   xmlns:dc="http://purl.org/dc/elements/1.1/"
   xmlns:cc="http://creativecommons.org/ns#"
   xmlns:rdf="http://www.w3.org/1999/02/22-rdf-syntax-ns#"
   xmlns:svg="http://www.w3.org/2000/svg"
   xmlns="http://www.w3.org/2000/svg"
   xmlns:sodipodi="http://sodipodi.sourceforge.net/DTD/sodipodi-0.dtd"
   xmlns:inkscape="http://www.inkscape.org/namespaces/inkscape"
   version="1.1"
   id="Layer_1"
   x="0px"
   y="0px"
   viewBox="0 0 1658.4914 539.03394"
   xml:space="preserve"
   inkscape:version="0.91 r13725"
   sodipodi:docname="jumbotron.svg"
   width="1658.4915"
   height="539.03394"><metadata
   id="metadata117"><rdf:RDF><cc:Work
       rdf:about=""><dc:format>image/svg+xml</dc:format><dc:type
         rdf:resource="http://purl.org/dc/dcmitype/StillImage" /><dc:title></dc:title></cc:Work></rdf:RDF></metadata><defs
   id="defs115">
	
	
</defs><sodipodi:namedview
   pagecolor="#ffffff"
   bordercolor="#666666"
   borderopacity="1"
   objecttolerance="10"
   gridtolerance="10"
   guidetolerance="10"
   inkscape:pageopacity="0"
   inkscape:pageshadow="2"
   inkscape:window-width="1600"
   inkscape:window-height="838"
   id="namedview113"
   showgrid="false"
   inkscape:zoom="0.4609375"
   inkscape:cx="447.6532"
   inkscape:cy="505.99151"
   inkscape:window-x="-8"
   inkscape:window-y="-8"
   inkscape:window-maximized="1"
   inkscape:current-layer="Layer_1"
   fit-margin-top="0"
   fit-margin-left="0"
   fit-margin-right="0"
   fit-margin-bottom="0" />


















<rect
   style="fill:#337180;fill-opacity:1;fill-rule:evenodd;stroke:#000000;stroke-width:1.1313827px;stroke-linecap:butt;stroke-linejoin:miter;stroke-opacity:1"
   id="rect4980"
   width="1657.3601"
   height="537.90253"
   x="0.56569135"
   y="0.56569135"
   inkscape:export-xdpi="100.7"
   inkscape:export-ydpi="100.7" /><g
   id="g83"
   transform="translate(616.63552,-222.95762)">
</g>
<g
   id="g85"
   transform="translate(616.63552,-222.95762)">
</g>
<g
   id="g87"
   transform="translate(616.63552,-222.95762)">
</g>
<g
   id="g89"
   transform="translate(616.63552,-222.95762)">
</g>
<g
   id="g91"
   transform="translate(616.63552,-222.95762)">
</g>
<g
   id="g93"
   transform="translate(616.63552,-222.95762)">
</g>
<g
   id="g95"
   transform="translate(616.63552,-222.95762)">
</g>
<g
   id="g97"
   transform="translate(616.63552,-222.95762)">
</g>
<g
   id="g99"
   transform="translate(616.63552,-222.95762)">
</g>
<g
   id="g101"
   transform="translate(616.63552,-222.95762)">
</g>
<g
   id="g103"
   transform="translate(616.63552,-222.95762)">
</g>
<g
   id="g105"
   transform="translate(616.63552,-222.95762)">
</g>
<g
   id="g107"
   transform="translate(616.63552,-222.95762)">
</g>
<g
   id="g109"
   transform="translate(616.63552,-222.95762)">
</g>
<g
   id="g111"
   transform="translate(616.63552,-222.95762)">
</g>
<g
   id="g3486"
   transform="translate(225.37008,-781.27391)">
</g><g
   id="g3488"
   transform="translate(225.37008,-781.27391)">
</g><g
   id="g3490"
   transform="translate(225.37008,-781.27391)">
</g><g
   id="g3492"
   transform="translate(225.37008,-781.27391)">
</g><g
   id="g3494"
   transform="translate(225.37008,-781.27391)">
</g><g
   id="g3496"
   transform="translate(225.37008,-781.27391)">
</g><g
   id="g3498"
   transform="translate(225.37008,-781.27391)">
</g><g
   id="g3500"
   transform="translate(225.37008,-781.27391)">
</g><g
   id="g3502"
   transform="translate(225.37008,-781.27391)">
</g><g
   id="g3504"
   transform="translate(225.37008,-781.27391)">
</g><g
   id="g3506"
   transform="translate(225.37008,-781.27391)">
</g><g
   id="g3508"
   transform="translate(225.37008,-781.27391)">
</g><g
   id="g3510"
   transform="translate(225.37008,-781.27391)">
</g><g
   id="g3512"
   transform="translate(225.37008,-781.27391)">
</g><g
   id="g3514"
   transform="translate(225.37008,-781.27391)">
</g><g
   id="g3640"
   transform="translate(-511.50008,-698.07626)">
</g><g
   id="g3642"
   transform="translate(-511.50008,-698.07626)">
</g><g
   id="g3644"
   transform="translate(-511.50008,-698.07626)">
</g><g
   id="g3646"
   transform="translate(-511.50008,-698.07626)">
</g><g
   id="g3648"
   transform="translate(-511.50008,-698.07626)">
</g><g
   id="g3650"
   transform="translate(-511.50008,-698.07626)">
</g><g
   id="g3652"
   transform="translate(-511.50008,-698.07626)">
</g><g
   id="g3654"
   transform="translate(-511.50008,-698.07626)">
</g><g
   id="g3656"
   transform="translate(-511.50008,-698.07626)">
</g><g
   id="g3658"
   transform="translate(-511.50008,-698.07626)">
</g><g
   id="g3660"
   transform="translate(-511.50008,-698.07626)">
</g><g
   id="g3662"
   transform="translate(-511.50008,-698.07626)">
</g><g
   id="g3664"
   transform="translate(-511.50008,-698.07626)">
</g><g
   id="g3666"
   transform="translate(-511.50008,-698.07626)">
</g><g
   id="g3668"
   transform="translate(-511.50008,-698.07626)">
</g><g
   id="g3766"
   transform="translate(631.06495,-416.79933)">
</g><g
   id="g3768"
   transform="translate(631.06495,-416.79933)">
</g><g
   id="g3770"
   transform="translate(631.06495,-416.79933)">
</g><g
   id="g3772"
   transform="translate(631.06495,-416.79933)">
</g><g
   id="g3774"
   transform="translate(631.06495,-416.79933)">
</g><g
   id="g3776"
   transform="translate(631.06495,-416.79933)">
</g><g
   id="g3778"
   transform="translate(631.06495,-416.79933)">
</g><g
   id="g3780"
   transform="translate(631.06495,-416.79933)">
</g><g
   id="g3782"
   transform="translate(631.06495,-416.79933)">
</g><g
   id="g3784"
   transform="translate(631.06495,-416.79933)">
</g><g
   id="g3786"
   transform="translate(631.06495,-416.79933)">
</g><g
   id="g3788"
   transform="translate(631.06495,-416.79933)">
</g><g
   id="g3790"
   transform="translate(631.06495,-416.79933)">
</g><g
   id="g3792"
   transform="translate(631.06495,-416.79933)">
</g><g
   id="g3794"
   transform="translate(631.06495,-416.79933)">
</g><g
   id="g3890"
   transform="translate(-568.66378,-204.18917)">
</g><g
   id="g3892"
   transform="translate(-568.66378,-204.18917)">
</g><g
   id="g3894"
   transform="translate(-568.66378,-204.18917)">
</g><g
   id="g3896"
   transform="translate(-568.66378,-204.18917)">
</g><g
   id="g3898"
   transform="translate(-568.66378,-204.18917)">
</g><g
   id="g3900"
   transform="translate(-568.66378,-204.18917)">
</g><g
   id="g3902"
   transform="translate(-568.66378,-204.18917)">
</g><g
   id="g3904"
   transform="translate(-568.66378,-204.18917)">
</g><g
   id="g3906"
   transform="translate(-568.66378,-204.18917)">
</g><g
   id="g3908"
   transform="translate(-568.66378,-204.18917)">
</g><g
   id="g3910"
   transform="translate(-568.66378,-204.18917)">
</g><g
   id="g3912"
   transform="translate(-568.66378,-204.18917)">
</g><g
   id="g3914"
   transform="translate(-568.66378,-204.18917)">
</g><g
   id="g3916"
   transform="translate(-568.66378,-204.18917)">
</g><g
   id="g3918"
   transform="translate(-568.66378,-204.18917)">
</g><g
   id="g4031"
   transform="translate(900.08199,-421.13831)">
</g><g
   id="g4033"
   transform="translate(900.08199,-421.13831)">
</g><g
   id="g4035"
   transform="translate(900.08199,-421.13831)">
</g><g
   id="g4037"
   transform="translate(900.08199,-421.13831)">
</g><g
   id="g4039"
   transform="translate(900.08199,-421.13831)">
</g><g
   id="g4041"
   transform="translate(900.08199,-421.13831)">
</g><g
   id="g4043"
   transform="translate(900.08199,-421.13831)">
</g><g
   id="g4045"
   transform="translate(900.08199,-421.13831)">
</g><g
   id="g4047"
   transform="translate(900.08199,-421.13831)">
</g><g
   id="g4049"
   transform="translate(900.08199,-421.13831)">
</g><g
   id="g4051"
   transform="translate(900.08199,-421.13831)">
</g><g
   id="g4053"
   transform="translate(900.08199,-421.13831)">
</g><g
   id="g4055"
   transform="translate(900.08199,-421.13831)">
</g><g
   id="g4057"
   transform="translate(900.08199,-421.13831)">
</g><g
   id="g4059"
   transform="translate(900.08199,-421.13831)">
</g><g
   id="g4149"
   transform="translate(1459.8108,-429.81628)">
</g><g
   id="g4151"
   transform="translate(1459.8108,-429.81628)">
</g><g
   id="g4153"
   transform="translate(1459.8108,-429.81628)">
</g><g
   id="g4155"
   transform="translate(1459.8108,-429.81628)">
</g><g
   id="g4157"
   transform="translate(1459.8108,-429.81628)">
</g><g
   id="g4159"
   transform="translate(1459.8108,-429.81628)">
</g><g
   id="g4161"
   transform="translate(1459.8108,-429.81628)">
</g><g
   id="g4163"
   transform="translate(1459.8108,-429.81628)">
</g><g
   id="g4165"
   transform="translate(1459.8108,-429.81628)">
</g><g
   id="g4167"
   transform="translate(1459.8108,-429.81628)">
</g><g
   id="g4169"
   transform="translate(1459.8108,-429.81628)">
</g><g
   id="g4171"
   transform="translate(1459.8108,-429.81628)">
</g><g
   id="g4173"
   transform="translate(1459.8108,-429.81628)">
</g><g
   id="g4175"
   transform="translate(1459.8108,-429.81628)">
</g><g
   id="g4177"
   transform="translate(1459.8108,-429.81628)">
</g><g
   id="g4286"
   transform="translate(1190.7938,-429.81629)">
</g><g
   id="g4288"
   transform="translate(1190.7938,-429.81629)">
</g><g
   id="g4290"
   transform="translate(1190.7938,-429.81629)">
</g><g
   id="g4292"
   transform="translate(1190.7938,-429.81629)">
</g><g
   id="g4294"
   transform="translate(1190.7938,-429.81629)">
</g><g
   id="g4296"
   transform="translate(1190.7938,-429.81629)">
</g><g
   id="g4298"
   transform="translate(1190.7938,-429.81629)">
</g><g
   id="g4300"
   transform="translate(1190.7938,-429.81629)">
</g><g
   id="g4302"
   transform="translate(1190.7938,-429.81629)">
</g><g
   id="g4304"
   transform="translate(1190.7938,-429.81629)">
</g><g
   id="g4306"
   transform="translate(1190.7938,-429.81629)">
</g><g
   id="g4308"
   transform="translate(1190.7938,-429.81629)">
</g><g
   id="g4310"
   transform="translate(1190.7938,-429.81629)">
</g><g
   id="g4312"
   transform="translate(1190.7938,-429.81629)">
</g><g
   id="g4314"
   transform="translate(1190.7938,-429.81629)">
</g><g
   id="g4448"
   transform="translate(-13.273974,-349.54509)">
</g><g
   id="g4450"
   transform="translate(-13.273974,-349.54509)">
</g><g
   id="g4452"
   transform="translate(-13.273974,-349.54509)">
</g><g
   id="g4454"
   transform="translate(-13.273974,-349.54509)">
</g><g
   id="g4456"
   transform="translate(-13.273974,-349.54509)">
</g><g
   id="g4458"
   transform="translate(-13.273974,-349.54509)">
</g><g
   id="g4460"
   transform="translate(-13.273974,-349.54509)">
</g><g
   id="g4462"
   transform="translate(-13.273974,-349.54509)">
</g><g
   id="g4464"
   transform="translate(-13.273974,-349.54509)">
</g><g
   id="g4466"
   transform="translate(-13.273974,-349.54509)">
</g><g
   id="g4468"
   transform="translate(-13.273974,-349.54509)">
</g><g
   id="g4470"
   transform="translate(-13.273974,-349.54509)">
</g><g
   id="g4472"
   transform="translate(-13.273974,-349.54509)">
</g><g
   id="g4474"
   transform="translate(-13.273974,-349.54509)">
</g><g
   id="g4476"
   transform="translate(-13.273974,-349.54509)">
</g><g
   id="g5802"
   transform="matrix(0.84871692,0,0,0.81804688,460.24106,-152.89408)"
   inkscape:export-xdpi="100.7"
   inkscape:export-ydpi="100.7"><g
     transform="translate(511.27753,-234.48306)"
     id="g4831"><path
       inkscape:connector-curvature="0"
       style="fill:#261d17"
       d="m 578.46783,818.04384 c -7.312,-27.279 -69.907,-49.333 -147.073,-49.333 -77.166,0 -139.095,22.054 -146.407,49.333 -3.259,12.158 -6.962,35.192 -10.126,57.525 42.747,34.934 97.357,55.897 156.87,55.897 59.509,0 114.116,-20.963 156.862,-55.896 -3.164,-22.333 -6.867,-45.368 -10.126,-57.526 z"
       id="path4410" /><path
       inkscape:connector-curvature="0"
       style="fill:#703a24"
       d="m 470.61883,717.42884 -77.78,0 c 12.136,36.588 0.978,53.294 0.978,53.294 l 26.912,6.063 22,0 26.912,-6.062 c 0,-10e-4 -11.158,-16.707 0.978,-53.295 z"
       id="path4412" /><path
       inkscape:connector-curvature="0"
       style="fill:#86492c"
       d="m 431.72983,496.88984 c -44.047,0 -79.754,21.167 -79.754,113.596 0,31.266 5.595,55.765 13.973,74.673 18.432,41.598 50.335,56.136 65.781,56.136 15.446,0 47.349,-14.538 65.78,-56.136 8.377,-18.908 13.972,-43.407 13.972,-74.673 0,-92.429 -35.707,-113.596 -79.752,-113.596 z"
       id="path4414" /><path
       inkscape:connector-curvature="0"
       style="fill:#b20d0d"
       d="m 442.16083,693.05684 c -2.971,-0.439 -10.432,2.5 -10.432,2.5 0,0 -7.566,-2.931 -10.561,-2.48 -4.798,0.722 -11.939,8.953 -11.939,10.313 0,0 10.074,5.25 22.5,5.25 12.426,0 22.5,-5.25 22.5,-5.25 0,0 -7.197,-9.613 -12.068,-10.333 z"
       id="path4416" /><path
       inkscape:connector-curvature="0"
       style="fill:#9b0b0b"
       d="m 437.85583,699.72184 c -1.951,-0.105 -4.461,1.668 -6.127,1.668 -1.925,0 -4.809,-1.753 -7.025,-1.617 -13.15,0.81 -15.475,3.617 -15.475,3.617 0,0 10.074,9.125 22.5,9.125 12.426,0 22.5,-9.125 22.5,-9.125 0,0 -2.717,-2.935 -16.373,-3.668 z"
       id="path4418" /><path
       inkscape:connector-curvature="0"
       style="fill:#703a24"
       d="m 469.56083,770.72284 c 0,0 -8.915,17.333 -38.123,17.333 -29.209,0 -37.543,-17.333 -37.543,-17.333 0,0 -64.014,106 37.91,106 101.924,0 37.756,-106 37.756,-106 z"
       id="path4420" /><path
       inkscape:connector-curvature="0"
       style="fill:#4f2516"
       d="m 431.76983,858.05684 -4.666,18.579 c 0.953,0.037 2.641,0.088 4.667,0.088 2.056,0 3.763,-0.053 4.706,-0.089 l -4.707,-18.578 z"
       id="path4422" /><path
       inkscape:connector-curvature="0"
       style="fill:#703a24"
       d="m 431.47883,752.30684 -37.662,18.417 c 0,0 16.828,28.073 37.62,28.073 20.792,0 38.204,-28.073 38.204,-28.073 l -38.162,-18.417 z"
       id="path4424" /><g
       id="g4426"
       transform="translate(183.64983,435.31084)">
	<path
   inkscape:connector-curvature="0"
   style="fill:#86492c"
   d="m 169.766,177.962 c -7.624,1.304 -13.423,4.587 -9.122,29.746 4.303,25.159 9.645,26.329 17.268,25.025 l -8.146,-54.771 z"
   id="path4428" />
	<path
   inkscape:connector-curvature="0"
   style="fill:#86492c"
   d="m 326.491,177.962 -8.146,54.771 c 7.625,1.304 12.967,0.134 17.268,-25.025 4.301,-25.159 -1.499,-28.442 -9.122,-29.746 z"
   id="path4430" />
</g><g
       id="g4432"
       transform="translate(183.64983,435.31084)">
	<circle
   style="fill:#261d17"
   cx="267.409"
   cy="256.74899"
   r="2.3329999"
   id="circle4434" />
	<circle
   style="fill:#261d17"
   cx="294.57901"
   cy="81.079002"
   r="21"
   id="circle4436" />
	<circle
   style="fill:#261d17"
   cx="263.57901"
   cy="74.079002"
   r="21"
   id="circle4438" />
	<circle
   style="fill:#261d17"
   cx="232.57899"
   cy="74.079002"
   r="21"
   id="circle4440" />
	<circle
   style="fill:#261d17"
   cx="201.57899"
   cy="81.079002"
   r="21"
   id="circle4442" />
	<path
   inkscape:connector-curvature="0"
   style="fill:#261d17"
   d="m 201.579,96.079 c -19,19.5 5,30 5,30 3.5,-16.5 17.5,-13.5 17.5,-13.5 44.5,1 77,-12 77,-12 -38.5,-32 -99.5,-4.5 -99.5,-4.5 z"
   id="path4444" />
	<path
   inkscape:connector-curvature="0"
   style="fill:#261d17"
   d="m 281.517,310.066 c 0,0 -14.866,8.583 -33.438,8.583 -18.572,0 -33.438,-8.583 -33.438,-8.583 0,1.502 -0.188,7.08 -0.188,8.583 0,7.332 15.054,13.276 33.625,13.276 18.571,0 33.625,-5.944 33.625,-13.276 0.001,-1.503 -0.186,-7.08 -0.186,-8.583 z"
   id="path4446" />
</g></g><g
     transform="translate(441.13035,386.16949)"
     id="g4935"><path
       inkscape:connector-curvature="0"
       style="fill:#4abc96"
       d="m 409.24742,188.89129 c -7.312,-27.279 -69.907,-49.333 -147.073,-49.333 -77.16599,0 -139.09499,22.054 -146.407,49.333 -3.259,12.158 -6.961,35.192 -10.126,57.525 42.747,34.934 97.358,55.897 156.87,55.897 59.509,0 114.117,-20.963 156.863,-55.896 -3.165,-22.333 -6.867,-45.368 -10.127,-57.526 z"
       id="path3736" /><path
       inkscape:connector-curvature="0"
       style="fill:#339672"
       d="m 262.17442,139.55829 c -18.935,0 -36.949,1.331 -53.46699,3.738 0.344,21.9 7.081,64.083 53.90399,64.083 46.762,0 53.425,-42.074 53.724,-63.998 -16.741,-2.462 -35.001,-3.823 -54.161,-3.823 z"
       id="path3738" /><g
       id="g3740"
       transform="translate(14.429425,-193.84171)">
	<path
   inkscape:connector-curvature="0"
   style="fill:#e2a379"
   d="m 247.829,316.996 -37.662,18.417 c 0,0 16.829,28.073 37.621,28.073 20.792,0 38.205,-28.073 38.205,-28.073 l -38.164,-18.417 z"
   id="path3742" />
	<path
   inkscape:connector-curvature="0"
   style="fill:#e2a379"
   d="m 286.969,282.118 -77.78,0 c 12.136,36.588 0.977,53.294 0.977,53.294 l 26.913,6.063 22,0 26.913,-6.062 c 0,-0.001 -11.16,-16.707 0.977,-53.295 z"
   id="path3744" />
</g><path
       inkscape:connector-curvature="0"
       style="fill:#f7f7f7"
       d="m 300.34042,141.57029 c 0,0 -8.915,17.333 -38.12399,17.333 -29.20901,0 -37.542,-17.333 -37.542,-17.333 0,0 -7.015,54.667 37.90999,54.667 44.925,0 37.756,-54.667 37.756,-54.667 z"
       id="path3746" /><path
       inkscape:connector-curvature="0"
       style="fill:#602f0f"
       d="m 262.50943,-132.26271 c -48.74101,0 -88.254,21.167 -88.254,113.596 0,31.266 6.191,55.765 15.462,74.673 20.396,41.598 55.69999,56.136 72.792,56.136 17.09199,0 52.39499,-14.538 72.79099,-56.136 9.271,-18.908 15.461,-43.407 15.461,-74.673 0,-92.429 -39.513,-113.596 -88.252,-113.596 z"
       id="path3748" /><g
       id="g3750"
       transform="translate(14.429425,-193.84171)">
	<path
   inkscape:connector-curvature="0"
   style="fill:#f4b382"
   d="m 248.08,61.579 c -48.741,0 -88.254,21.167 -88.254,113.596 0,31.266 6.191,55.765 15.462,74.673 20.396,41.598 55.7,35.419 72.792,35.419 17.092,0 52.395,6.179 72.791,-35.418 9.271,-18.908 15.461,-43.407 15.461,-74.673 0,-92.43 -39.513,-113.597 -88.252,-113.597 z"
   id="path3752" />
	<path
   inkscape:connector-curvature="0"
   style="fill:#f4b382"
   d="m 161.396,178.019 c -8.438,1.443 -14.856,5.077 -10.096,32.922 4.761,27.846 10.673,29.141 19.112,27.698 l -9.016,-60.62 z"
   id="path3754" />
</g><g
       id="g3756"
       transform="translate(14.429425,-193.84171)">
	<path
   inkscape:connector-curvature="0"
   style="fill:#602f0f"
   d="m 248.08,61.579 c -48.741,0 -88.254,21.167 -88.254,113.596 l 74.578,-37.096 12.175,-32.5 89.753,69.596 c 0,-92.429 -39.513,-113.596 -88.252,-113.596 z"
   id="path3758" />
	<path
   inkscape:connector-curvature="0"
   style="fill:#602f0f"
   d="m 180.079,141.746 -14.625,-0.979 c -4.25,10.875 -5.628,24.359 -5.628,37.479 0,0 8.753,-1.917 8.753,2.583 l 2.75,27.625 3.875,-1.875 c -0.25,-23 4.875,-64.833 4.875,-64.833 z"
   id="path3760" />
</g><path
       inkscape:connector-curvature="0"
       style="fill:#f4b382"
       d="m 349.28942,-15.82271 -9.016,60.62 c 8.438,1.443 14.351,0.148 19.112,-27.698 4.76101,-27.845 -1.658,-31.479 -10.096,-32.922 z"
       id="path3762" /><path
       inkscape:connector-curvature="0"
       style="fill:#602f0f"
       d="m 345.23242,-53.07471 -14.625,-0.354 c 0,0 5.125,43.167 4.875,66.167 l 3.875,1.875 2.75,-27.625 c 0,-4.5 8.753,-2.583 8.753,-2.583 0,-13.122 -1.378,-26.606 -5.628,-37.48 z"
       id="path3764" /></g><g
     transform="translate(501.15252,431.72882)"
     id="g4952"><path
       inkscape:connector-curvature="0"
       style="fill:#388e6f"
       d="m 851.65838,143.33196 c -8.494,-27.279 -81.197,-49.333002 -170.825,-49.333002 -89.628,0 -161.559,22.054002 -170.052,49.333002 -2.64,8.479 -5.53,22.247 -8.284,37.377 45.13,46.873 108.518,76.045 178.726,76.045 70.204,0 133.589,-29.171 178.719,-76.042 -2.755,-15.132 -5.644,-28.901 -8.284,-37.38 z"
       id="path3838" /><g
       id="g3840"
       transform="translate(433.14138,-239.40104)">
	<path
   inkscape:connector-curvature="0"
   style="fill:#d4d6d8"
   d="m 247.787,362.152 -37.542,-26.74 c 0,0 20.221,139 37.909,139 17.688,0 37.756,-139 37.756,-139 l -38.123,26.74 z"
   id="path3842" />
	<polygon
   style="fill:#d4d6d8"
   points="208.306,322.246 210.166,335.412 247.787,363.485 285.992,335.412 287.852,322.246 247.829,316.996 "
   id="polygon3844" />
</g><path
       inkscape:connector-curvature="0"
       style="fill:#7f3e09"
       d="m 720.11038,42.716958 -77.78,0 c 12.136,36.588 0.977,53.294 0.977,53.294 l 26.913,6.063002 22,0 26.913,-6.062002 c 0,-0.001 -11.16,-16.707 0.977,-53.295 z"
       id="path3846" /><g
       id="g3848"
       transform="translate(433.14138,-239.40104)">
	<polygon
   style="fill:#f3faff"
   points="282.079,358.746 305.746,337.792 287.852,322.246 "
   id="polygon3850" />
	<polygon
   style="fill:#f3faff"
   points="190.412,337.792 214.079,358.746 208.305,322.246 "
   id="polygon3852" />
	<path
   inkscape:connector-curvature="0"
   style="fill:#f3faff"
   d="m 287.852,322.246 -39.794,19.229 c 0,0 34.03,17.28 34.198,17.113 l 23.489,-20.796 -17.893,-15.546 z"
   id="path3854" />
	<path
   inkscape:connector-curvature="0"
   style="fill:#f3faff"
   d="m 208.305,322.246 -17.893,15.547 23.489,20.796 c 0.167,0.167 34.157,-17.113 34.157,-17.113 l -39.753,-19.23 z"
   id="path3856" />
</g><g
       id="g3858"
       transform="translate(433.14138,-239.40104)">
	<polygon
   style="fill:#86b4d1"
   points="263.767,349.417 248.048,341.475 232.329,349.417 248.048,375.017 "
   id="polygon3860" />
	<path
   inkscape:connector-curvature="0"
   style="fill:#86b4d1"
   d="m 252.11,361.912 -8.141,0 -11.263,84.289 c 4.993,16.557 10.327,28.211 15.448,28.211 5.087,0 10.372,-11.511 15.319,-27.895 L 252.11,361.912 Z"
   id="path3862" />
</g><g
       id="g3864"
       transform="translate(433.14138,-239.40104)">
	<path
   inkscape:connector-curvature="0"
   style="fill:#4abc96"
   d="m 248.079,489.495 -0.021,-15.083 c 0,0 -33.99,-115.657 -34.157,-115.824 l -17.322,-26.217 -12.5,6.438 8,55.27 16.333,-3.667 -12,14.667 51.667,84.416 z"
   id="path3866" />
	<path
   inkscape:connector-curvature="0"
   style="fill:#4abc96"
   d="m 312.079,338.808 -12.5,-6.438 -17.322,26.218 C 282.09,358.755 248.1,474.412 248.1,474.412 l -0.021,15.083 51.667,-84.416 -12,-14.667 16.333,3.667 8,-55.271 z"
   id="path3868" />
</g><path
       inkscape:connector-curvature="0"
       style="fill:#8e4809"
       d="m 681.22138,-177.82204 c -48.741,0 -88.254,21.167 -88.254,113.595998 0,31.266 6.191,55.7650005 15.462,74.673 20.396,41.598 55.7,56.136 72.792,56.136 17.092,0 52.395,-14.538 72.791,-56.136 9.271,-18.9079995 15.461,-43.407 15.461,-74.673 0,-92.428998 -39.513,-113.595998 -88.252,-113.595998 z"
       id="path3870" /><g
       id="g3872"
       transform="translate(433.14138,-239.40104)">
	<path
   inkscape:connector-curvature="0"
   style="fill:#261d17"
   d="m 248.081,61.579 c -66.502,0 -88.255,21.167 -88.255,113.596 0,0 4.033,-30.473 18.946,-45.596 13.123,-13.308 34.67,-11.5 69.309,-11.5 2.57,0 5.068,-0.007 7.498,-0.016 1.619,-0.006 4.766,-15.517 4.766,-15.517 0,0 5.936,15.486 8.734,15.501 23.166,0.122 38.689,1.553 48.923,12.163 14.409,14.938 18.33,44.966 18.33,44.966 0,-92.43 -21.751,-113.597 -88.251,-113.597 z"
   id="path3874" />
	<path
   inkscape:connector-curvature="0"
   style="fill:#261d17"
   d="m 293.089,239.026 c 0,-8.315 -19.633,-15.385 -41.337,-16.605 -1.012,-0.057 -3.464,5.657 -3.673,5.658 -0.209,-0.001 -2.554,-5.718 -3.514,-5.667 -21.768,1.179 -41.496,8.278 -41.496,16.614 0,2.62 -1.644,21.503 5.983,16.03 6.207,-10.165 20.241,-17.87 35.281,-18.57 1.221,-0.057 2.471,1.254 3.746,1.269 1.331,-0.016 2.633,-1.324 3.907,-1.261 14.956,0.734 28.288,7.224 35.12,18.562 7.626,5.474 5.983,-13.41 5.983,-16.03 z"
   id="path3876" />
</g><g
       id="g3878"
       transform="translate(433.14138,-239.40104)">
	<path
   inkscape:connector-curvature="0"
   style="fill:#8e4809"
   d="m 161.396,178.019 c -8.438,1.443 -14.856,5.077 -10.096,32.922 4.761,27.846 10.673,29.141 19.112,27.698 l -9.016,-60.62 z"
   id="path3880" />
	<path
   inkscape:connector-curvature="0"
   style="fill:#8e4809"
   d="m 334.86,178.019 -9.016,60.62 c 8.438,1.443 14.351,0.148 19.112,-27.698 4.761,-27.845 -1.658,-31.479 -10.096,-32.922 z"
   id="path3882" />
</g><g
       id="g3884"
       transform="translate(433.14138,-239.40104)">
	<path
   inkscape:connector-curvature="0"
   style="fill:#261d17"
   d="m 334.141,140.767 -17.964,34.062 c 0,0 5.125,8.75 4.875,31.75 l 3.875,1.875 2.75,-27.625 c 0,-4.5 8.753,-2.583 8.753,-2.583 0.732,-18.834 -2.289,-37.479 -2.289,-37.479 z"
   id="path3886" />
	<path
   inkscape:connector-curvature="0"
   style="fill:#261d17"
   d="m 179.962,174.829 -17.964,-34.062 c 0,0 -3.021,18.646 -2.289,37.479 0,0 8.753,-1.917 8.753,2.583 l 2.75,27.625 3.875,-1.875 c -0.25,-23 4.875,-31.75 4.875,-31.75 z"
   id="path3888" />
</g></g><g
     transform="translate(-67.254238,390.50847)"
     id="g4904"><polygon
       style="fill:#d4d6d8"
       points="287.852,322.246 247.829,316.996 208.306,322.246 210.167,335.412 247.787,363.485 285.991,335.412 "
       id="polygon3973"
       transform="translate(283.44642,-198.18069)" /><path
       inkscape:connector-curvature="0"
       style="fill:#9bd1dd"
       d="m 531.52842,297.97431 c 70.204,0 133.589,-29.171 178.719,-76.042 -2.755,-15.131 -5.644,-28.901 -8.284,-37.38 -8.494,-27.279 -81.197,-49.333 -170.825,-49.333 -89.628,0 -161.559,22.054 -170.052,49.333 -2.64,8.479 -5.529,22.247 -8.283,37.377 45.129,46.873 108.517,76.045 178.725,76.045 z"
       id="path3975" /><path
       inkscape:connector-curvature="0"
       style="fill:#d6e7f2"
       d="m 626.52542,252.52831 -76.5,0 0,44.752 c 26.923,-1.985 52.65,-8.261 76.5,-18.159 l 0,-26.593 z"
       id="path3977" /><g
       id="g3979"
       transform="translate(283.44642,-198.18069)">
	<rect
   x="266.57901"
   y="449.849"
   style="fill:#556877"
   width="76.5"
   height="6.223"
   id="rect3981" />
	<path
   inkscape:connector-curvature="0"
   style="fill:#556877"
   d="m 335.415,465.845 -31.182,0 c -0.875,0 -1.585,-0.709 -1.585,-1.585 0,-0.876 0.71,-1.586 1.585,-1.586 l 31.182,0 c 0.876,0 1.586,0.71 1.586,1.586 0,0.875 -0.71,1.585 -1.586,1.585 z"
   id="path3983" />
	<path
   inkscape:connector-curvature="0"
   style="fill:#556877"
   d="m 335.415,477.736 -31.182,0 c -0.875,0 -1.585,-0.71 -1.585,-1.586 0,-0.875 0.71,-1.585 1.585,-1.585 l 31.182,0 c 0.876,0 1.586,0.71 1.586,1.585 0,0.876 -0.71,1.586 -1.586,1.586 z"
   id="path3985" />
	<path
   inkscape:connector-curvature="0"
   style="fill:#556877"
   d="m 304.233,486.456 c -0.875,0 -1.585,0.709 -1.585,1.586 0,0.875 0.71,1.585 1.585,1.585 l 0.554,0 c 4.098,-0.958 8.159,-2.012 12.175,-3.171 l -12.729,0 z"
   id="path3987" />
	<rect
   x="272.51901"
   y="461.08899"
   style="fill:#556877"
   width="23.386999"
   height="29.728001"
   id="rect3989" />
</g><g
       id="g3991"
       transform="translate(283.44642,-198.18069)">
	<path
   inkscape:connector-curvature="0"
   style="fill:#8c502f"
   d="m 286.969,282.118 -77.78,0 c 12.136,36.588 0.978,53.294 0.978,53.294 l 26.912,6.063 22,0 26.912,-6.062 c 0,-0.001 -11.158,-16.707 0.978,-53.295 z"
   id="path3993" />
	<path
   inkscape:connector-curvature="0"
   style="fill:#8c502f"
   d="m 210.167,335.412 c 0,0 16.828,28.073 37.62,28.073 20.792,0 38.204,-28.073 38.204,-28.073 l -38.162,-18.417 -37.662,18.417 z"
   id="path3995" />
</g><g
       id="g3997"
       transform="translate(283.44642,-198.18069)">
	<path
   inkscape:connector-curvature="0"
   style="fill:#9b5c32"
   d="m 336.332,175.175 c 0,-92.429 -39.513,-113.596 -88.252,-113.596 -48.741,0 -88.254,21.167 -88.254,113.596 0,31.266 6.19,55.765 15.462,74.673 20.396,41.598 55.7,56.136 72.792,56.136 17.092,0 52.396,-14.538 72.79,-56.136 9.271,-18.908 15.462,-43.407 15.462,-74.673 z"
   id="path3999" />
	<path
   inkscape:connector-curvature="0"
   style="fill:#9b5c32"
   d="m 170.413,238.639 c -8.439,1.443 -14.352,0.148 -19.112,-27.698 -4.76,-27.846 1.657,-31.479 10.096,-32.922 l 9.016,60.62 z"
   id="path4001" />
	<path
   inkscape:connector-curvature="0"
   style="fill:#9b5c32"
   d="m 325.845,238.639 c 8.438,1.443 14.35,0.148 19.111,-27.698 4.761,-27.846 -1.658,-31.479 -10.096,-32.922 l -9.015,60.62 z"
   id="path4003" />
</g><path
       inkscape:connector-curvature="0"
       style="fill:#844a2c"
       d="m 560.19142,66.61131 c 0,2.713 -12.834,10.134 -28.666,10.134 -15.832,0 -28.666,-7.421 -28.666,-10.134 0,-1.671 9.097,-6.459 15.21,-7.347 3.816,-0.554 13.456,3.047 13.456,3.047 0,0 9.506,-3.61 13.291,-3.071 6.206,0.886 15.375,7.371 15.375,7.371 z"
       id="path4005" /><path
       inkscape:connector-curvature="0"
       style="fill:#7a4229"
       d="m 560.19142,66.61131 c 0,2.713 -12.834,13.205 -28.666,13.205 -15.832,0 -28.666,-10.492 -28.666,-13.205 0,0 11.678,1.354 28.666,1.354 16.988,0 28.666,-1.354 28.666,-1.354 z"
       id="path4007" /><g
       id="g4009"
       transform="translate(283.44642,-198.18069)">
	<path
   inkscape:connector-curvature="0"
   style="fill:#30302e"
   d="m 336.332,175.175 c 0,-92.429 -39.513,-113.596 -88.252,-113.596 -48.741,0 -88.254,21.167 -88.254,113.596 l 134.411,-68.399 42.095,68.399 z"
   id="path4011" />
	<path
   inkscape:connector-curvature="0"
   style="fill:#30302e"
   d="m 165.454,140.767 c -4.25,10.875 -5.628,24.359 -5.628,37.479 0,0 8.753,-1.917 8.753,2.583 l 2.75,27.625 3.875,-1.875 c -0.25,-23 4.875,-64.833 4.875,-64.833 l -14.625,-0.979 z"
   id="path4013" />
	<path
   inkscape:connector-curvature="0"
   style="fill:#30302e"
   d="m 330.803,140.767 c 4.25,10.875 5.628,24.359 5.628,37.479 0,0 -8.753,-1.917 -8.753,2.583 l -2.75,27.625 -3.875,-1.875 c 0.25,-23 -4.875,-66.167 -4.875,-66.167 l 14.625,0.355 z"
   id="path4015" />
</g><g
       id="g4017"
       transform="translate(283.44642,-198.18069)">
	<path
   inkscape:connector-curvature="0"
   style="fill:#e4e9ed"
   d="m 248.155,427.912 c 17.688,0 46.424,-92.5 46.424,-92.5 l -46.791,28.417 -46.21,-28.417 c 0,0 28.889,92.5 46.577,92.5 z"
   id="path4019" />
	<path
   inkscape:connector-curvature="0"
   style="fill:#e4e9ed"
   d="m 305.745,337.792 -17.893,-15.547 -39.794,41.583 c 0,0 34.03,-5.074 34.198,-5.241 l 23.489,-20.795 z"
   id="path4021" />
	<path
   inkscape:connector-curvature="0"
   style="fill:#e4e9ed"
   d="m 190.412,337.792 17.894,-15.547 39.753,41.583 c 0,0 -33.989,-5.074 -34.157,-5.241 l -23.49,-20.795 z"
   id="path4023" />
</g><g
       id="g4025"
       transform="translate(283.44642,-198.18069)">
	<path
   inkscape:connector-curvature="0"
   style="fill:#62a4af"
   d="m 196.579,332.371 -12.5,6.438 8,41.771 16.334,-3.667 -12,14.667 51.666,51.415 -0.021,-15.083 c 0,0 -33.989,-69.157 -34.157,-69.324 l -17.322,-26.217 z"
   id="path4027" />
	<path
   inkscape:connector-curvature="0"
   style="fill:#62a4af"
   d="m 299.579,332.371 12.5,6.438 -8,41.771 -16.333,-3.667 12,14.667 -51.667,51.415 0.021,-15.083 c 0,0 33.989,-69.157 34.156,-69.324 l 17.323,-26.217 z"
   id="path4029" />
</g></g><g
     transform="translate(241.9322,499.08476)"
     id="g4870"><path
       inkscape:connector-curvature="0"
       style="fill:#1d1d1e"
       d="m 822.24029,289.29633 c 70.204,0 133.589,-29.171 178.71901,-76.042 -2.75501,-15.131 -5.64401,-28.901 -8.28401,-37.38 -8.494,-27.279 -81.197,-49.333 -170.825,-49.333 -89.628,0 -161.559,22.054 -170.052,49.333 -2.64,8.479 -5.529,22.247 -8.283,37.377 45.129,46.873 108.517,76.045 178.725,76.045 z"
       id="path4222" /><path
       inkscape:connector-curvature="0"
       style="fill:#d6e7f2"
       d="m 917.23729,243.85033 -76.5,0 0,44.752 c 26.923,-1.985 52.65,-8.261 76.5,-18.159 l 0,-26.593 z"
       id="path4224" /><g
       id="g4226"
       transform="translate(574.15829,-206.85867)">
	<rect
   x="266.57901"
   y="449.849"
   style="fill:#556877"
   width="76.5"
   height="6.223"
   id="rect4228" />
	<path
   inkscape:connector-curvature="0"
   style="fill:#556877"
   d="m 335.415,465.845 -31.182,0 c -0.875,0 -1.585,-0.709 -1.585,-1.585 0,-0.876 0.71,-1.586 1.585,-1.586 l 31.182,0 c 0.876,0 1.586,0.71 1.586,1.586 0,0.875 -0.71,1.585 -1.586,1.585 z"
   id="path4230" />
	<path
   inkscape:connector-curvature="0"
   style="fill:#556877"
   d="m 335.415,477.736 -31.182,0 c -0.875,0 -1.585,-0.71 -1.585,-1.586 0,-0.875 0.71,-1.585 1.585,-1.585 l 31.182,0 c 0.876,0 1.586,0.71 1.586,1.585 0,0.876 -0.71,1.586 -1.586,1.586 z"
   id="path4232" />
	<path
   inkscape:connector-curvature="0"
   style="fill:#556877"
   d="m 304.233,486.456 c -0.875,0 -1.585,0.709 -1.585,1.586 0,0.875 0.71,1.585 1.585,1.585 l 0.554,0 c 4.098,-0.958 8.159,-2.012 12.175,-3.171 l -12.729,0 z"
   id="path4234" />
	<rect
   x="272.51901"
   y="461.08899"
   style="fill:#556877"
   width="23.386999"
   height="29.728001"
   id="rect4236" />
</g><g
       id="g4238"
       transform="translate(574.15829,-206.85867)">
	<path
   inkscape:connector-curvature="0"
   style="fill:#d4d6d8"
   d="m 248.163,443.412 c 19.558,0 41.748,-108 41.748,-108 l -42.154,26.74 -41.512,-26.74 c 0,0 22.359,108 41.918,108 z"
   id="path4240" />
	<polygon
   style="fill:#d4d6d8"
   points="210.167,335.412 247.787,363.485 285.991,335.412 287.852,322.246 247.829,316.996 208.306,322.246 "
   id="polygon4242" />
</g><path
       inkscape:connector-curvature="0"
       style="fill:#e2a379"
       d="m 861.12729,75.25933 -77.78,0 c 12.136,36.588 0.978,53.294 0.978,53.294 l 26.912,6.063 22,0 26.912,-6.062 c 0,-0.001 -11.158,-16.707 0.978,-53.295 z"
       id="path4244" /><g
       id="g4246"
       transform="translate(574.15829,-206.85867)">
	<polygon
   style="fill:#f3faff"
   points="282.079,358.746 287.852,322.246 305.745,337.792 "
   id="polygon4248" />
	<polygon
   style="fill:#f3faff"
   points="214.079,358.746 208.306,322.246 190.412,337.792 "
   id="polygon4250" />
	<path
   inkscape:connector-curvature="0"
   style="fill:#f3faff"
   d="m 305.745,337.792 -17.893,-15.547 -39.794,19.229 c 0,0 34.03,17.28 34.198,17.113 l 23.489,-20.795 z"
   id="path4252" />
	<path
   inkscape:connector-curvature="0"
   style="fill:#f3faff"
   d="m 190.412,337.792 17.894,-15.547 39.753,19.229 c 0,0 -33.989,17.28 -34.157,17.113 l -23.49,-20.795 z"
   id="path4254" />
</g><g
       id="g4256"
       transform="translate(574.15829,-206.85867)">
	<polygon
   style="fill:#86b4d1"
   points="248.048,375.017 263.767,349.417 248.048,341.475 232.329,349.417 "
   id="polygon4258" />
	<path
   inkscape:connector-curvature="0"
   style="fill:#86b4d1"
   d="m 248.155,443.412 c 5.087,0 10.371,-11.511 15.318,-27.895 l -11.363,-53.605 -8.141,0 -11.263,53.289 c 4.994,16.557 10.328,28.211 15.449,28.211 z"
   id="path4260" />
</g><g
       id="g4262"
       transform="translate(574.15829,-206.85867)">
	<path
   inkscape:connector-curvature="0"
   style="fill:#4a4a54"
   d="m 196.579,332.371 -12.5,6.438 8,55.27 16.334,-3.667 -12,14.667 51.666,53.416 -0.021,-15.083 c 0,0 -33.989,-84.657 -34.157,-84.824 l -17.322,-26.217 z"
   id="path4264" />
	<path
   inkscape:connector-curvature="0"
   style="fill:#4a4a54"
   d="m 299.579,332.371 12.5,6.438 -8,55.27 -16.333,-3.667 12,14.667 -51.667,53.416 0.021,-15.083 c 0,0 33.989,-84.657 34.156,-84.824 l 17.323,-26.217 z"
   id="path4266" />
</g><path
       inkscape:connector-curvature="0"
       style="fill:#f4b382"
       d="m 910.49029,-31.68367 c 0,-92.429 -39.513,-113.596 -88.252,-113.596 -48.741,0 -88.254,21.167 -88.254,113.596 0,31.266 6.19,55.765 15.462,74.673 20.396,41.598 55.7,56.136 72.792,56.136 17.092,0 52.396,-14.538 72.79,-56.136 9.271,-18.908 15.462,-43.407 15.462,-74.673 z"
       id="path4268" /><path
       inkscape:connector-curvature="0"
       style="fill:#d89364"
       d="m 848.23629,58.37733 c 0,2.296 -11.64,8.578 -25.999,8.578 -14.359,0 -25.999,-6.281 -25.999,-8.578 0,-1.415 8.251,-5.467 13.796,-6.218 3.461,-0.469 12.203,2.579 12.203,2.579 0,0 8.621,-3.056 12.055,-2.599 5.628,0.748 13.944,6.238 13.944,6.238 z"
       id="path4270" /><path
       inkscape:connector-curvature="0"
       style="fill:#ce8757"
       d="m 848.23629,58.37733 c 0,2.296 -11.64,11.177 -25.999,11.177 -14.359,0 -25.999,-8.88 -25.999,-11.177 0,0 10.591,1.146 25.999,1.146 15.408,0 25.999,-1.146 25.999,-1.146 z"
       id="path4272" /><path
       inkscape:connector-curvature="0"
       style="fill:#f4b382"
       d="m 744.57129,31.78033 c -8.439,1.443 -14.352,0.148 -19.112,-27.698 -4.76,-27.846 1.657,-31.479 10.096,-32.922 l 9.016,60.62 z"
       id="path4274" /><g
       id="g4276"
       transform="translate(574.15829,-206.85867)">
	<path
   inkscape:connector-curvature="0"
   style="fill:#51250d"
   d="m 336.332,178.246 c 11.414,-22.762 8.423,-43.121 2.747,-56.5 -9.333,-22 -21.117,-28.587 -21.117,-28.587 -7.551,-24.748 -41.44,-33.08 -69.882,-33.08 -48.741,0 -95.001,25.738 -88.254,118.167 l 20.253,-3.417 c 0,-2.629 97,-58.75 97,-58.75 9.667,5.667 25,2 25,2 0,-3.804 14.099,56.75 14.099,56.75 l 20.154,3.417 z"
   id="path4278" />
	<path
   inkscape:connector-curvature="0"
   style="fill:#51250d"
   d="m 165.454,140.767 c -4.25,10.875 -5.628,24.359 -5.628,37.479 0,0 8.753,-1.917 8.753,2.583 l 2.75,27.625 3.875,-1.875 c -0.25,-23 4.875,-31.75 4.875,-31.75 l -14.625,-34.062 z"
   id="path4280" />
</g><path
       inkscape:connector-curvature="0"
       style="fill:#f4b382"
       d="m 900.00329,31.78033 c 8.438,1.443 14.35,0.148 19.111,-27.698 4.761,-27.846 -1.658,-31.479 -10.096,-32.922 l -9.015,60.62 z"
       id="path4282" /><path
       inkscape:connector-curvature="0"
       style="fill:#51250d"
       d="m 904.96129,-66.09167 c 4.25,10.875 5.628,24.359 5.628,37.479 0,0 -8.753,-1.917 -8.753,2.583 l -2.75,27.625 -3.875,-1.875 c 0.25,-23 -4.875,-31.75 -4.875,-31.75 l 14.625,-34.062 z"
       id="path4284" /></g><g
     transform="translate(861.3223,-48.81355)"
     id="g4811"><rect
       x="-110.21187"
       y="548.52863"
       style="fill:#e5ce6a"
       width="150"
       height="214.67"
       id="rect3448" /><path
       inkscape:connector-curvature="0"
       style="fill:#d33d3d"
       d="m 112.02714,737.77264 c -7.312,-27.279 -69.907004,-49.333 -147.073004,-49.333 -77.165996,0 -139.094996,22.054 -146.406996,49.333 -3.259,12.158 -6.961,35.192 -10.126,57.525 42.747,34.934 97.357996,55.897 156.869996,55.897 59.509,0 114.117,-20.963 156.863004,-55.896 -3.165,-22.333 -6.867,-45.368 -10.127,-57.526 z"
       id="path3450" /><path
       inkscape:connector-curvature="0"
       style="fill:#ce926a"
       d="m 4.1781363,637.15764 -77.7800003,0 c 12.136,36.588 0.978,53.294 0.978,53.294 l 26.912,6.063 22,0 26.9120003,-6.062 c 0,-10e-4 -11.158,-16.707 0.978,-53.295 z"
       id="path3452" /><g
       id="g3454"
       transform="translate(-282.79086,355.03964)">
	<path
   inkscape:connector-curvature="0"
   style="fill:#f2de7c"
   d="M 297.913,175.056 173.079,102.079 c -54,106 -46.162,217.188 -28.355,245.861 35.835,57.702 -3.645,77.745 -3.645,77.745 l 1.936,-0.973 c 0,0 72.594,-9.405 60.064,-76.164 -6,-31.969 -9.265,-98.052 94.834,-173.492 z"
   id="path3456" />
	<path
   inkscape:connector-curvature="0"
   style="fill:#f2de7c"
   d="M 351.403,347.94 C 369.21,319.267 377.048,208.079 323.048,102.079 l -124.834,72.977 c 104.099,75.44 100.834,141.523 94.834,173.492 -12.529,66.759 60.064,76.164 60.064,76.164 l 1.936,0.973 c 0,0 -39.481,-20.043 -3.645,-77.745 z"
   id="path3458" />
</g><path
       inkscape:connector-curvature="0"
       style="fill:#db9a6e"
       d="m -34.710864,416.61864 c -44.047,0 -79.753996,21.167 -79.753996,113.596 0,31.266 5.595,55.765 13.973,74.673 18.431996,41.598 50.334996,56.136 65.780996,56.136 15.446,0 47.349,-14.538 65.78,-56.136 8.377,-18.908 13.972,-43.407 13.972,-74.673 0,-92.429 -35.7069997,-113.596 -79.752,-113.596 z"
       id="path3460" /><path
       inkscape:connector-curvature="0"
       style="fill:#e24444"
       d="m -24.279864,612.78564 c -2.971,-0.439 -10.432,2.5 -10.432,2.5 0,0 -7.566,-2.931 -10.561,-2.48 -4.798,0.722 -11.939,8.953 -11.939,10.313 0,0 10.074,5.25 22.5,5.25 12.426,0 22.5,-5.25 22.5,-5.25 0,0 -7.197,-9.613 -12.068,-10.333 z"
       id="path3462" /><path
       inkscape:connector-curvature="0"
       style="fill:#d33d3d"
       d="m -28.584864,619.45064 c -1.951,-0.105 -4.461,1.668 -6.127,1.668 -1.925,0 -4.809,-1.753 -7.025,-1.617 -13.15,0.81 -15.475,3.617 -15.475,3.617 0,0 10.074,9.125 22.5,9.125 12.426,0 22.5,-9.125 22.5,-9.125 0,0 -2.717,-2.935 -16.373,-3.668 z"
       id="path3464" /><g
       id="g3466"
       transform="translate(-282.79086,355.03964)">
	<path
   inkscape:connector-curvature="0"
   style="fill:#ce926a"
   d="m 285.911,335.412 c 0,0 -8.915,17.333 -38.123,17.333 -29.209,0 -37.543,-17.333 -37.543,-17.333 0,0 -7.015,54.667 37.91,54.667 44.924,0 37.756,-54.667 37.756,-54.667 z"
   id="path3468" />
	<path
   inkscape:connector-curvature="0"
   style="fill:#ce926a"
   d="m 247.829,316.996 -37.662,18.417 c 0,0 16.828,28.073 37.62,28.073 20.792,0 38.204,-28.073 38.204,-28.073 l -38.162,-18.417 z"
   id="path3470" />
</g><path
       inkscape:connector-curvature="0"
       style="fill:#f2de7c"
       d="m -34.710864,416.61864 c -10e-4,0 -10e-4,0 0,0 -10e-4,0 -10e-4,0 -0.002,0 -48.74,0 -88.251996,21.168 -88.251996,113.596 0,0 88.170996,-22.596 88.170996,-56.244 0,33.647 88.335,56.244 88.335,56.244 0,-92.428 -39.512,-113.596 -88.252,-113.596 z"
       id="path3472" /><g
       id="g3474"
       transform="translate(-282.79086,355.03964)">
	<path
   inkscape:connector-curvature="0"
   style="fill:#db9a6e"
   d="m 169.766,177.962 c -7.624,1.304 -13.423,4.587 -9.122,29.746 4.303,25.159 9.645,26.329 17.268,25.025 l -8.146,-54.771 z"
   id="path3476" />
	<path
   inkscape:connector-curvature="0"
   style="fill:#db9a6e"
   d="m 326.491,177.962 -8.146,54.771 c 7.625,1.304 12.967,0.134 17.268,-25.025 4.301,-25.159 -1.499,-28.442 -9.122,-29.746 z"
   id="path3478" />
</g><path
       id="path3482"
       d="m -108.04486,536.45164 c -1.042,-6.583 0.067,-11.833 0.067,-11.833 l -14.987,5.596 c 0,0 9.253,1.237 12.587,11.904 0,0 3.662,2.728 2.333,-5.667 z"
       style="fill:#f2de7c"
       inkscape:connector-curvature="0" /><path
       id="path3484"
       d="m 38.59214,524.61864 c 0,0 1.109,5.25 0.067,11.833 -1.328,8.394 2.334,5.667 2.334,5.667 3.333,-10.667 12.586,-11.904 12.586,-11.904 l -14.987,-5.596 z"
       style="fill:#f2de7c"
       inkscape:connector-curvature="0" /></g><g
     transform="translate(-502.2034,513.08475)"
     id="g4852"><path
       inkscape:connector-curvature="0"
       style="fill:#e07f0b"
       d="m 1237.9932,175.87434 c -7.312,-27.279 -69.907,-49.333 -147.073,-49.333 -77.166,0 -139.09496,22.054 -146.40696,49.333 -3.259,12.158 -6.961,35.192 -10.126,57.525 42.747,34.934 97.35796,55.897 156.86996,55.897 59.509,0 114.117,-20.963 156.863,-55.896 -3.165,-22.333 -6.867,-45.368 -10.127,-57.526 z"
       id="path4117" /><polygon
       style="fill:#969899"
       points="285.992,335.412 287.852,322.246 247.829,316.996 208.306,322.246 210.166,335.412 247.787,363.485 "
       id="polygon4119"
       transform="translate(843.17524,-206.85866)" /><path
       inkscape:connector-curvature="0"
       style="fill:#7f3e09"
       d="m 1091.0042,110.13734 -37.662,18.417 c 0,0 16.829,28.073 37.621,28.073 20.792,0 38.205,-28.073 38.205,-28.073 l -38.164,-18.417 z"
       id="path4121" /><path
       inkscape:connector-curvature="0"
       style="fill:#e07f0b"
       d="m 1056.0332,132.32134 -2.612,-3.767 c 0,-0.001 0.762,1.573 2.612,3.767 z m 34.929,13.566 c -20.421,0 -30.63,-8.468 -34.93,-13.566 l 35.298,50.899 35.772,-51.793 c -3.977,4.924 -14.47,14.46 -36.14,14.46 z m 36.14,-14.46 c 1.384,-1.713 1.984,-2.873 1.984,-2.873 l -1.984,2.873 z"
       id="path4123" /><path
       inkscape:connector-curvature="0"
       style="fill:#7f3e09"
       d="m 1130.1442,75.25934 -77.78,0 c 12.136,36.588 0.977,53.294 0.977,53.294 l 26.913,17.334 22,0 26.913,-17.333 c 0,-0.001 -11.16,-16.707 0.977,-53.295 z"
       id="path4125" /><g
       id="g4127"
       transform="translate(843.17524,-206.85866)">
	<path
   inkscape:connector-curvature="0"
   style="fill:#f3faff"
   d="m 287.852,322.246 -39.794,30.5 c 0,0 34.03,6.009 34.198,5.842 l 23.489,-20.796 -17.893,-15.546 z"
   id="path4129" />
	<path
   inkscape:connector-curvature="0"
   style="fill:#f3faff"
   d="m 208.305,322.246 -17.893,15.547 23.489,20.796 c 0.167,0.167 34.157,-5.842 34.157,-5.842 l -39.753,-30.501 z"
   id="path4131" />
</g><path
       inkscape:connector-curvature="0"
       style="fill:#261d17"
       d="m 1091.2552,-145.27966 c -48.741,0 -88.254,21.167 -88.254,113.596 0,31.266 6.191,55.765 15.462,74.673 20.396,41.598 55.7,56.136 72.792,56.136 17.092,0 52.395,-14.538 72.791,-56.136 9.271,-18.908 15.461,-43.407 15.461,-74.673 0,-92.429 -39.513,-113.596 -88.252,-113.596 z"
       id="path4133" /><g
       id="g4135"
       transform="translate(843.17524,-206.85866)">
	<path
   inkscape:connector-curvature="0"
   style="fill:#8e4809"
   d="m 248.08,61.579 c -48.415,0 -87.725,20.885 -88.249,111.75 -0.003,0.612 7.556,1.228 7.556,1.846 0,31.266 12.36,97.904 80.693,97.904 68.333,0 80.691,-66.638 80.691,-97.904 0,-0.703 7.559,-1.402 7.554,-2.097 C 335.73,82.425 296.449,61.579 248.08,61.579 Z"
   id="path4137" />
	<path
   inkscape:connector-curvature="0"
   style="fill:#8e4809"
   d="m 161.396,178.019 c -8.438,1.443 -14.856,5.077 -10.096,32.922 4.761,27.846 10.673,29.141 19.112,27.698 l -9.016,-60.62 z"
   id="path4139" />
	<path
   inkscape:connector-curvature="0"
   style="fill:#8e4809"
   d="m 334.86,178.019 -9.016,60.62 c 8.438,1.443 14.351,0.148 19.112,-27.698 4.761,-27.845 -1.658,-31.479 -10.096,-32.922 z"
   id="path4141" />
</g><g
       id="g4143"
       transform="translate(843.17524,-206.85866)">
	<path
   inkscape:connector-curvature="0"
   style="fill:#261d17"
   d="m 248.079,239.079 c -25.049,0 -37.75,8.075 -37.75,24 0,19.561 19.404,40.25 37.75,40.25 18.346,0 37.75,-20.689 37.75,-40.25 0,-15.925 -12.701,-24 -37.75,-24 z m 0,51.986 c -13.396,0 -28.667,-12.937 -28.667,-27.388 0,-4.02 0,-16.251 28.667,-16.251 28.667,0 28.667,12.232 28.667,16.251 0,14.451 -15.271,27.388 -28.667,27.388 z"
   id="path4145" />
	<path
   inkscape:connector-curvature="0"
   style="fill:#261d17"
   d="m 253.079,263.329 c -0.293,-0.819 -0.771,-1.639 -1.467,-2.458 -0.729,-0.82 -1.593,-1.639 -3.033,-2.458 l -1,0 c -1.44,0.819 -2.305,1.639 -3.033,2.458 -0.695,0.819 -1.174,1.639 -1.467,2.458 -0.301,0.82 -0.273,1.639 0.05,2.458 0.319,0.819 0.751,1.639 0.95,2.458 0.403,1.639 0.903,3.278 1.5,4.917 0.613,1.639 1.209,3.278 2,4.917 l 1,0 c 0.791,-1.639 1.387,-3.278 2,-4.917 0.597,-1.639 1.097,-3.278 1.5,-4.917 0.199,-0.819 0.631,-1.639 0.95,-2.458 0.323,-0.818 0.351,-1.638 0.05,-2.458 z"
   id="path4147" />
</g></g></g></svg>